<svg xmlns="http://www.w3.org/2000/svg" xmlns:xlink="http://www.w3.org/1999/xlink" width="401" height="121" viewBox="0 0 401 121">
  <defs>
    <clipPath id="clip-logo-softinsa">
      <rect width="401" height="121"/>
    </clipPath>
  </defs>
  <g id="logo-softinsa" clip-path="url(#clip-logo-softinsa)">
    <rect width="401" height="121" fill="#fff"/>
    <g id="softinsa-logo" transform="translate(36.705 35.684)">
      <g id="Group_2" data-name="Group 2" transform="translate(0 0.177)">
        <path id="Path_4" data-name="Path 4" d="M28.773,15.33a7.117,7.117,0,0,0-2.708-5.284q-2.343-1.735-7.029-1.737-8.641,0-8.64,5.63a4.079,4.079,0,0,0,1.795,3.372,15.555,15.555,0,0,0,5.747,2.26q4.685,1.041,8.127,1.945a49.38,49.38,0,0,1,6.3,2.085A16.23,16.23,0,0,1,35.4,25.164a9,9,0,0,1,2.417,2.328,11.4,11.4,0,0,1,1.574,3.336,16.6,16.6,0,0,1,.586,4.726,11.766,11.766,0,0,1-1.463,5.909,13.517,13.517,0,0,1-3.955,4.344A18.657,18.657,0,0,1,28.7,48.519a26.379,26.379,0,0,1-7.1.937q-10.617,0-15.961-3.892T0,34.027H9.81a6.631,6.631,0,0,0,3.039,5.594,12.756,12.756,0,0,0,7.432,2.052q4.833,0,7.322-1.67a5.176,5.176,0,0,0,2.489-4.518,6.816,6.816,0,0,0-.293-2.048,3.863,3.863,0,0,0-1.134-1.705,7.8,7.8,0,0,0-2.306-1.354A23.183,23.183,0,0,0,22.55,29.3q-5.564-1.109-9.627-2.258a24.726,24.726,0,0,1-6.7-2.851,10.79,10.79,0,0,1-3.88-4.135A13.516,13.516,0,0,1,1.1,13.87,13.158,13.158,0,0,1,2.2,8.518,11.522,11.522,0,0,1,5.564,4.174a17.182,17.182,0,0,1,5.6-2.92A25.678,25.678,0,0,1,19.036.176a26.968,26.968,0,0,1,7.908,1.078,18.454,18.454,0,0,1,6.041,3.058,13.814,13.814,0,0,1,3.918,4.8,15.4,15.4,0,0,1,1.536,6.221Z" transform="translate(0 -0.176)" fill="#1D324F" fill-rule="evenodd"/>
      </g>
      <g id="Group_3" data-name="Group 3" transform="translate(45.176 0.176)">
        <path id="Path_5" data-name="Path 5" d="M42.647,41.184a14.009,14.009,0,0,0,5.125-.938,11.341,11.341,0,0,0,4.21-2.849A13.4,13.4,0,0,0,54.8,32.5a21.91,21.91,0,0,0,1.027-7.089q0-8.2-3.369-12.442t-9.81-4.24q-6.445,0-9.885,4.24T29.32,25.408q0,8.2,3.478,11.989t9.849,3.787m0,8.272q-11.276,0-17.317-6.256t-6.041-18a33.4,33.4,0,0,1,1.538-10.5,21.133,21.133,0,0,1,4.539-7.888A19.691,19.691,0,0,1,32.689,1.88a27.009,27.009,0,0,1,9.958-1.7,27.093,27.093,0,0,1,9.92,1.7,18.829,18.829,0,0,1,7.285,4.969,22.068,22.068,0,0,1,4.467,7.959,33.959,33.959,0,0,1,1.537,10.6q0,11.954-5.967,18T42.647,49.456" transform="translate(-19.289 -0.176)" fill="#1D324F" fill-rule="evenodd"/>
      </g>
      <path id="Path_6" data-name="Path 6" d="M73.168,46.982V8.892H58.523V.83H98.062L90.906,8.892h-7.56v38.09Z" transform="translate(78.541 0.877)" fill="#39639c" fill-rule="evenodd"/>
      <path id="Path_7" data-name="Path 7" d="M75.49,46.982V8.894L82.649.83h3.018V46.982Z" transform="translate(101.31 0.877)" fill="#39639c" fill-rule="evenodd"/>
      <path id="Path_8" data-name="Path 8" d="M113.059,46.982l-20.794-31v31H82.819V.83H93.582l19.33,29.679V.83h9.517V46.982Z" transform="translate(111.146 0.877)" fill="#1D324F" fill-rule="evenodd"/>
      <g id="Group_4" data-name="Group 4" transform="translate(239.287 0.177)">
        <path id="Path_9" data-name="Path 9" d="M130.947,15.33a7.128,7.128,0,0,0-2.71-5.284q-2.343-1.735-7.028-1.737-8.639,0-8.64,5.63a4.079,4.079,0,0,0,1.794,3.372,15.548,15.548,0,0,0,5.747,2.26q4.683,1.041,8.127,1.945a49.494,49.494,0,0,1,6.3,2.085,16.245,16.245,0,0,1,3.038,1.564,9,9,0,0,1,2.417,2.328,11.47,11.47,0,0,1,1.574,3.336,16.638,16.638,0,0,1,.583,4.726,11.751,11.751,0,0,1-1.461,5.909,13.509,13.509,0,0,1-3.956,4.344,18.618,18.618,0,0,1-5.857,2.711,26.371,26.371,0,0,1-7.1.937q-10.616,0-15.961-3.892T102.17,34.027h9.813a6.635,6.635,0,0,0,3.035,5.594,12.769,12.769,0,0,0,7.434,2.052q4.834,0,7.321-1.67a5.174,5.174,0,0,0,2.49-4.518,6.869,6.869,0,0,0-.293-2.048,3.867,3.867,0,0,0-1.134-1.705,7.8,7.8,0,0,0-2.307-1.354,23.234,23.234,0,0,0-3.806-1.078q-5.568-1.109-9.63-2.258a24.706,24.706,0,0,1-6.7-2.851,10.8,10.8,0,0,1-3.883-4.135,13.541,13.541,0,0,1-1.244-6.185,13.156,13.156,0,0,1,1.1-5.352,11.535,11.535,0,0,1,3.368-4.344,17.214,17.214,0,0,1,5.6-2.92A25.685,25.685,0,0,1,121.208.176a26.97,26.97,0,0,1,7.907,1.078,18.492,18.492,0,0,1,6.042,3.058,13.827,13.827,0,0,1,3.916,4.8,15.416,15.416,0,0,1,1.536,6.221Z" transform="translate(-102.17 -0.176)" fill="#1D324F" fill-rule="evenodd"/>
      </g>
      <path id="Path_10" data-name="Path 10" d="M143.251,11.187h-.07l-6.223,18.348h12.373Zm12.083,35.8-3.075-9.523H134.321l-3.44,9.523H120.116L137.468.83h11.787L166.39,46.982Z" transform="translate(161.201 0.877)" fill="#1D324F" fill-rule="evenodd"/>
      <path id="Path_11" data-name="Path 11" d="M51.867,16.885V36.348H41.69V8.753H73.247v8.132Z" transform="translate(55.949 11.511)" fill="#1D324F" fill-rule="evenodd"/>
      <g id="Group_5" data-name="Group 5" transform="translate(97.639 1.707)">
        <path id="Path_12" data-name="Path 12" d="M41.69,8.892H76.324V.83H41.69Z" transform="translate(-41.69 -0.83)" fill="#1D324F" fill-rule="evenodd"/>
      </g>
    </g>
  </g>
</svg>
